<svg width="240" height="160" viewBox="0 0 240 160" fill="none" xmlns="http://www.w3.org/2000/svg">
<g clip-path="url(#clip0_244_4469)">
<path fill-rule="evenodd" clip-rule="evenodd" d="M152.8 22.847C153.073 21.4442 155.063 21.3969 155.403 22.7851L165.184 62.7045L165.124 61.3675C165.118 61.2349 165.132 61.1022 165.165 60.9738L166.402 56.1857C166.726 54.9349 168.461 54.8288 168.934 56.031L170.733 60.6018C170.793 60.753 170.824 60.9138 170.826 61.0762L170.89 67.2411L171.31 67.7058C171.519 67.9375 171.641 68.2353 171.653 68.5474L171.931 75.6061L180.118 78.352L181.088 78.1905L181.039 76.6268C181.036 76.5325 181.044 76.4381 181.061 76.3453L181.861 71.9797C182.102 70.6645 183.913 70.4833 184.41 71.7246L186.107 75.9619C186.162 76.0995 186.194 76.2454 186.201 76.3935L186.244 77.3058L190.467 76.5984C190.724 76.5554 190.982 76.6655 191.128 76.8803L192.734 79.2352L193.589 75.4663C193.873 74.2146 195.588 74.0476 196.108 75.2209L198.044 79.5876C198.111 79.7383 198.149 79.9001 198.157 80.0648L198.347 84.0762L199.648 85.9948C199.775 86.1827 199.852 86.4001 199.872 86.6263L200.567 94.5309L203.058 95.513L200.458 74.3477C200.44 74.1962 200.447 74.0426 200.481 73.8936L200.713 72.8559C200.991 71.6166 202.68 71.4306 203.221 72.5797L203.792 73.793C203.839 73.8927 203.873 73.9979 203.894 74.106L203.955 74.4182L204.237 74.3609L204.27 74.2088C204.543 72.9645 206.238 72.7745 206.78 73.9275L206.811 73.9946L208.501 73.6176V72.9492C208.501 72.8534 208.511 72.7579 208.532 72.6643L209.268 69.2983C209.329 69.02 209.56 68.8111 209.843 68.7784C210.126 68.7457 210.398 68.8965 210.521 69.1536L212.11 72.4847C212.177 72.6241 212.218 72.7741 212.234 72.9279L212.289 73.485L212.66 71.568C212.9 70.3306 214.565 70.0863 215.15 71.2025L216.945 74.6253C217.017 74.7627 217.065 74.9116 217.086 75.0652L218.833 87.9307L219.366 89.0835C219.419 89.1984 219.455 89.3203 219.474 89.4455L223.952 119.367H266C266.368 119.367 266.667 119.665 266.667 120.034C266.667 120.402 266.368 120.7 266 120.7H223.505L217.616 123.032C217.522 123.069 217.42 123.084 217.319 123.076L207.401 122.304C206.865 122.263 206.417 121.906 206.246 121.415H183.644L177.704 122.257C177.66 122.264 177.615 122.266 177.57 122.263L172.704 121.97L163.911 122.243L163.978 123.675C163.986 123.853 163.923 124.028 163.801 124.159C163.679 124.29 163.51 124.367 163.331 124.372C160.758 124.446 156.864 124.667 152.645 124.906C151.588 124.966 150.512 125.028 149.43 125.088C144.043 125.388 138.539 125.666 134.912 125.666C127.814 125.666 120.299 124.836 117.221 124.393C117.189 124.396 117.155 124.397 117.125 124.398C116.985 124.401 116.725 124.399 116.357 124.395C116.117 124.392 115.827 124.388 115.483 124.383C114.754 124.373 113.787 124.359 112.561 124.346C110.847 124.328 108.632 124.313 105.876 124.311C105.872 124.311 105.868 124.311 105.864 124.311C102.835 124.309 99.1536 124.324 94.7671 124.372C78.0151 124.557 68.3455 122.868 63.7329 120.853C63.167 120.605 62.8728 120.008 62.97 119.429L66.7312 96.9838C66.7547 96.8432 66.8007 96.7074 66.8672 96.5814L67.2645 95.8294C67.8733 94.6769 69.6037 94.9926 69.7664 96.2858L69.8335 96.8199C69.8477 96.9325 69.8474 97.0464 69.8327 97.159L69.7703 97.6371L72.2832 92.9061C72.3946 92.6965 72.609 92.5618 72.8462 92.5527L76.5568 92.4093C76.7609 90.4724 77.486 88.8457 78.7639 87.7123C80.0344 86.5855 81.7737 86.015 83.8878 86.0391V83.9232C83.8878 83.6844 83.9519 83.45 84.0735 83.2445L101.154 54.3657C101.73 53.3919 103.181 53.5328 103.559 54.5991L106.753 63.6138L107.96 61.8754C108.128 61.6336 108.435 61.5306 108.715 61.622L114.81 63.6138L117.707 55.0789C118.143 53.7932 119.998 53.9063 120.275 55.2355L122.22 64.5716C122.241 64.6742 122.25 64.779 122.247 64.8837L122.229 65.4949L137.45 69.5166V68.1404C137.45 67.816 137.568 67.5028 137.782 67.2593L138.469 66.4793L138.34 60.5397C138.337 60.382 138.362 60.225 138.413 60.0759L140.072 55.2689C140.498 54.0349 142.26 54.0848 142.615 55.3409L143.925 59.9693C143.958 60.0874 143.975 60.2096 143.975 60.3323V63.7775L145.403 60.7511L152.8 22.847ZM143.923 65.4499L143.983 66.1139C143.263 66.1789 142.642 65.6114 142.642 64.888V60.3323L141.332 55.7039L139.673 60.5109L139.802 66.4505C139.809 66.7847 139.691 67.1095 139.47 67.3604L138.783 68.1404V69.8689L146.807 71.989C147.179 72.0873 147.49 72.3415 147.661 72.6864L155.896 89.3169V63.3362L154.245 63.6626L144.079 66.0983L143.923 65.4499ZM154.769 62.1998L156.433 61.8708C156.541 61.8494 156.653 61.8552 156.759 61.8877L158.014 62.2744V56.4155L156.33 51.4977L154.769 56.6798V62.1998ZM158.472 63.8108L157.229 63.4279V92.0052L159.741 96.9201L159.789 90.6603C159.79 90.5184 159.814 90.3776 159.859 90.2432L161.184 86.3275C161.575 85.1723 163.183 85.1047 163.67 86.223L164.948 89.1621L170.781 80.2833L170.321 68.5999L169.901 68.1352C169.683 67.8937 169.56 67.5806 169.557 67.2551L169.492 61.0902L167.693 56.5193L166.456 61.3074L166.616 64.8686C166.657 65.7608 165.766 66.3967 164.938 66.0748L158.472 63.8108ZM164.23 64.4144L154.108 23.1024L146.711 61.0065C146.69 61.1148 146.656 61.2201 146.609 61.3199L145.119 64.478L153.436 62.4853V56.6798C153.436 56.5496 153.455 56.4201 153.493 56.2954L155.053 51.1133C155.427 49.8726 157.171 49.84 157.591 51.0658L159.275 55.9836C159.323 56.1226 159.347 56.2685 159.347 56.4155V62.7045L164.23 64.4144ZM171.853 81.0803L165.505 90.743L165.615 93.0298L166.417 91.9822C166.577 91.7738 166.844 91.6784 167.099 91.7385L171.017 92.6598C171.021 92.6416 171.024 92.6234 171.029 92.6053L171.902 88.8492C172.197 87.5823 173.946 87.4439 174.436 88.6486L175.987 92.4587C176.001 92.4935 176.013 92.5289 176.025 92.5647L181.007 91.8177L180.566 83.0105C180.557 82.8478 180.579 82.6849 180.63 82.5301L181.17 80.8735L181.129 79.5353L171.853 81.0803ZM181.076 93.1556L176.085 93.9039V95.0914L181.443 100.107L181.076 93.1556ZM180.274 100.839L177.153 100.49L177.048 97.9654C177.046 97.9111 177.04 97.8571 177.031 97.8038L180.274 100.839ZM177.219 101.839L178.237 120.835L182.886 120.176L181.571 102.326L177.219 101.839ZM184.217 120.081H206.053L203.242 97.0191L200.078 95.7712C199.608 95.5859 199.283 95.1508 199.239 94.6476L198.544 86.743L197.244 84.8244C197.106 84.6214 197.027 84.3843 197.015 84.1394L196.825 80.128L194.889 75.7613L194.034 79.5302C193.777 80.6661 192.289 80.9487 191.632 79.9863L190.702 78.6214L188.58 83.411C188.07 84.562 186.369 84.2846 186.243 83.0415L185.206 81.0128C185.12 80.8442 185.071 80.6591 185.062 80.47L184.869 76.4574L183.173 72.2201L182.372 76.5857L182.503 80.8324C182.508 80.9866 182.486 81.1405 182.438 81.2871L181.897 82.9437L182.369 92.3524L182.369 92.354L182.86 101.676L182.861 101.69L184.217 120.081ZM189.466 78.118L187.493 82.5728C187.477 82.5322 187.46 82.4923 187.44 82.4534L186.393 80.406L186.309 78.6469L189.466 78.118ZM176.905 120.887L175.845 101.125L175.845 101.117L175.716 98.0209L174.95 96.7779C174.82 96.5676 174.752 96.3254 174.752 96.0784V92.9613L173.201 89.1512L172.327 92.9074V96.034C172.327 97.2678 170.796 97.8397 169.987 96.9079L166.979 93.4419L166.674 93.8403C165.919 94.8269 164.343 94.335 164.284 93.0939L164.169 90.7124L162.447 86.7549L161.122 90.6706L161.054 99.4903L162.963 103.225C163.006 103.309 163.031 103.402 163.035 103.497L163.849 120.911C163.856 120.911 163.863 120.91 163.87 120.91L172.693 120.636C172.713 120.636 172.734 120.636 172.754 120.637L176.905 120.887ZM161.73 104.131L137.651 101.588C132.144 101.257 127.498 101.258 124.075 101.471C122.361 101.577 120.967 101.736 119.93 101.929C119.411 102.026 118.994 102.129 118.678 102.234C118.541 102.279 118.432 102.322 118.346 102.361L117.808 123.129C121.057 123.576 128.183 124.333 134.912 124.333C138.494 124.333 143.96 124.057 149.356 123.757C150.431 123.697 151.503 123.636 152.556 123.576C156.425 123.356 160.04 123.151 162.615 123.061L161.73 104.131ZM116.476 123.063L117.023 101.959C117.027 101.8 117.087 101.648 117.194 101.53L118.979 99.548L117.396 96.5489L112.792 104.891C112.558 105.317 112.111 105.581 111.625 105.581H107.617L106.578 122.978C109.015 122.982 111.004 122.997 112.575 123.013C113.802 123.026 114.776 123.04 115.506 123.05C115.849 123.055 116.137 123.059 116.373 123.062C116.409 123.062 116.443 123.063 116.476 123.063ZM105.242 122.977L107.049 92.7357C107.049 92.7311 107.05 92.7265 107.05 92.722L107.231 90.4739L106.129 89.3423L104.87 90.4411L104.686 92.4988C104.623 93.2111 104.008 93.7463 103.294 93.7119L87.9964 92.9749C87.2554 92.9392 86.686 92.3056 86.7295 91.565L86.8177 90.0614L86.3173 88.8435L84.8549 88.448L83.9027 89.9523L83.646 92.3476L83.6452 92.3548L82.2103 104.495L80.0239 122.632C84.1337 122.944 89.0135 123.102 94.7524 123.039C98.848 122.994 102.33 122.978 105.242 122.977ZM78.694 122.523L80.8022 105.035L76.9906 104.791C76.2466 104.744 75.6863 104.095 75.7469 103.352L76.2987 96.5878L76.1217 95.7585L75.7749 96.5089L75.5058 98.6295C75.3081 100.187 73.0497 100.182 72.8596 98.6231L72.4668 95.4029L68.1319 103.564C67.9591 103.889 67.5555 104.013 67.2304 103.84C67.1211 103.782 67.0346 103.698 66.9745 103.599L64.2866 119.639C66.9749 120.809 71.6046 121.903 78.694 122.523ZM67.1456 102.578L67.987 100.994L68.5106 96.9863L68.4434 96.4521L68.0462 97.2041L67.1456 102.578ZM73.6214 93.8571L74.1831 98.4617L74.4521 96.3411C74.4693 96.2056 74.5073 96.0735 74.5646 95.9495L74.9114 95.1991C75.3625 94.2232 76.6379 94.2005 77.1951 94.9584L76.7251 93.7371L73.6214 93.8571ZM78.1016 93.6015L81.2027 101.66L82.2203 93.0511L78.1016 93.6015ZM82.376 91.6851L82.577 89.8102C82.5987 89.6072 82.6669 89.4118 82.7761 89.2392L83.8878 87.4829V87.3724C82.0153 87.3477 80.6167 87.8512 79.6486 88.7098C78.7285 89.5259 78.127 90.7251 77.915 92.2812L82.376 91.6851ZM85.2211 87.1658L86.458 87.5003C86.7581 86.9802 87.2153 86.3882 87.8309 85.893C88.6825 85.2079 89.8553 84.6965 91.3198 84.8515C91.686 84.8903 91.9514 85.2185 91.9126 85.5846C91.8739 85.9508 91.5457 86.2162 91.1795 86.1775C90.13 86.0664 89.2987 86.4234 88.6666 86.9319C88.132 87.3619 87.7531 87.8919 87.5372 88.304L88.051 89.5547C88.1271 89.7398 88.1605 89.9397 88.1488 90.1395L88.0605 91.6431L103.358 92.3801L103.542 90.3223C103.573 89.9799 103.735 89.6626 103.994 89.4365L105.453 88.1628C105.349 87.7429 105.099 87.3937 104.77 87.1282C104.353 86.7915 103.85 86.6246 103.466 86.6246C103.098 86.6246 102.799 86.3261 102.799 85.9579C102.799 85.5897 103.098 85.2912 103.466 85.2912C104.184 85.2912 104.977 85.5818 105.607 86.0906C106.193 86.5628 106.671 87.2519 106.804 88.1233L108.186 89.544C108.454 89.8196 108.591 90.1975 108.56 90.5808L108.379 92.8288L107.697 104.247H111.625L116.287 95.798C116.233 95.6814 116.202 95.5513 116.202 95.4137V93.9394C116.202 91.7678 115.231 90.3513 114.057 89.4207C112.861 88.472 111.452 88.0322 110.669 87.8885C110.306 87.8221 110.067 87.4747 110.133 87.1125C110.199 86.7504 110.547 86.5106 110.909 86.577C111.839 86.7474 113.47 87.2536 114.886 88.376C116.324 89.5167 117.536 91.2965 117.536 93.9394V94.8408C117.833 94.8806 118.114 95.0536 118.275 95.3576L119.902 98.44L120.914 64.8436L118.969 55.5075L115.889 64.5823L114.899 80.5499C114.819 81.8385 113.132 82.2632 112.451 81.1681L112.411 81.1653C111.88 81.1295 111.421 80.7817 111.244 80.2804L102.302 55.0445L85.2211 83.9232V87.1658ZM114.532 64.9257L110.106 63.4793L114.231 69.7803L114.532 64.9257ZM114.093 72.0039L108.491 63.4479L107.301 65.1615L112.501 79.835L112.545 79.8381C112.964 79.8664 113.344 80.0909 113.57 80.4425L114.093 72.0039ZM121.279 96.9948L122.187 66.8631L146.466 73.2781L155.397 91.3157L130.577 87.5693C130.134 87.5025 129.687 87.6625 129.388 87.9953L121.279 96.9948ZM156.124 92.7738L130.378 88.8877L121.054 99.2374L119.834 100.591C120.923 100.397 122.325 100.244 123.993 100.14C127.485 99.9231 132.192 99.9238 137.746 100.257C137.756 100.258 137.766 100.259 137.776 100.26L161.216 102.736L156.124 92.7738ZM80.5525 103.683L77.4628 95.654L77.6026 96.3096C77.6297 96.4366 77.6381 96.5668 77.6276 96.6962L77.0758 103.461L80.5525 103.683ZM168.802 93.5087L170.994 94.0241V96.034L168.802 93.5087ZM172.092 79.6888L177.317 78.8186L171.987 77.0313L172.092 79.6888ZM222.64 119.609L218.155 89.6429L217.623 88.4901C217.567 88.3697 217.529 88.2416 217.512 88.1101L215.765 75.2447L213.969 71.8218L213.526 74.1056C213.366 74.931 212.467 75.38 211.711 75.012C211.569 74.9426 211.443 74.8484 211.337 74.736L217.913 121.48L222.64 119.609ZM216.595 121.683L209.834 73.6233C209.832 74.2454 209.399 74.7834 208.791 74.919L207.102 75.296C206.492 75.432 205.87 75.1267 205.604 74.5614L205.573 74.4942L205.539 74.6463C205.426 75.1622 205.02 75.5627 204.502 75.6677L204.22 75.7249C203.494 75.8721 202.788 75.3997 202.646 74.6729L202.585 74.3608L202.014 73.1475L201.782 74.1852L204.518 96.4632L204.518 96.4638L207.505 120.975L216.595 121.683ZM202.017 73.14C202.017 73.1397 202.017 73.1395 202.017 73.14V73.14Z" fill="white"/>
</g>
<defs>
<clipPath id="clip0_244_4469">
<rect width="240" height="160" fill="white"/>
</clipPath>
</defs>
</svg>
