<svg width="480" height="240" viewBox="0 0 480 240" fill="none" xmlns="http://www.w3.org/2000/svg">
<g clip-path="url(#clip0_145_894)">
<path d="M256.514 195.024L257.36 162.404M256.514 195.024C260.905 195.672 272.392 196.967 283.214 196.967C294.036 196.967 316.15 195.302 325.848 195.024M256.514 195.024C257.845 195.197 248.129 194.746 222.939 195.024C196.928 195.311 182.483 192.576 176.079 189.511M257.36 162.404C259.308 160.823 270.795 159.825 287.409 160.823L324.432 164.734M257.36 162.404L260.508 158.91M325.848 195.024L324.432 164.734M325.848 195.024L325.747 192.874C325.721 192.316 326.157 191.845 326.716 191.828L339.961 191.416L347.312 191.859M176.079 189.511L181.85 155.075C181.868 154.97 181.902 154.868 181.952 154.773L182.549 153.644C183.006 152.779 184.304 153.016 184.426 153.987L184.527 154.789C184.538 154.873 184.538 154.959 184.527 155.043L183.717 161.239M176.079 189.511H0M324.432 164.734L321.456 158.91M260.508 158.91L261.667 157.623M260.508 158.91L257.354 152.936C257.177 152.602 256.704 152.593 256.514 152.919M321.456 158.91L315.715 147.677M321.456 158.91L321.56 145.425C321.56 145.318 321.578 145.213 321.612 145.112L323.601 139.233C323.895 138.366 325.102 138.316 325.467 139.155L328.124 145.264M347.312 191.859L345.662 161.073M347.312 191.859L356.299 190.584M315.715 147.677L276.558 141.766C276.225 141.716 275.89 141.837 275.664 142.086L261.667 157.623M315.715 147.677L301.456 118.879C301.328 118.62 301.094 118.429 300.815 118.356L288.024 114.976M315.715 147.677V103.181M261.667 157.623L262.629 125.711L263.15 108.404M288.024 114.976V111.611C288.024 111.367 288.113 111.132 288.274 110.949L289.305 109.778C289.471 109.59 289.56 109.347 289.554 109.095L289.362 100.179C289.359 100.061 289.377 99.9428 289.416 99.8312L291.907 92.6151C292.226 91.6888 293.549 91.7264 293.816 92.6691L295.781 99.617C295.806 99.7056 295.819 99.7972 295.819 99.8893V106.729C295.819 107.226 296.246 107.617 296.742 107.572M288.024 114.976L263.15 108.404M315.715 103.181L312.023 103.911M315.715 103.181L318.894 104.161M328.124 145.264L328.306 149.022C328.351 149.954 329.533 150.323 330.1 149.583L331.304 148.01M328.124 145.264L338.073 130.12M331.304 148.01L336.624 154.14C337.23 154.839 338.38 154.41 338.38 153.484V149.674M331.304 148.01L338.38 149.674M338.073 130.12L337.813 123.547M338.073 130.12L350.995 127.968M338.38 149.674V148.79C338.38 148.714 338.389 148.638 338.406 148.564L339.717 142.925C339.939 141.974 341.251 141.87 341.619 142.774L343.947 148.494C343.996 148.614 344.021 148.742 344.021 148.871V149.424M345.662 161.073L345.467 156.425C345.46 156.254 345.409 156.087 345.32 155.942L344.17 154.076C344.072 153.917 344.021 153.736 344.021 153.551V152.503M345.662 161.073L354.195 162.027M356.299 190.584L354.195 162.027M356.299 190.584H391.139M344.021 152.503L354.195 162.027M344.021 152.503V149.424M354.195 162.027L353.456 148.01M344.021 149.424L353.456 148.01M353.456 148.01L352.748 133.883C352.742 133.761 352.758 133.639 352.796 133.523L353.607 131.036C353.643 130.925 353.66 130.81 353.656 130.694L353.559 127.541M353.559 127.541L353.46 124.319C353.457 124.249 353.463 124.178 353.476 124.108L354.677 117.555C354.858 116.567 356.218 116.432 356.591 117.363L359.137 123.724C359.178 123.827 359.202 123.937 359.208 124.048L359.327 126.543M353.559 127.541L350.995 127.968M366.778 125.295L362.864 134.129C362.513 134.921 361.339 134.724 361.265 133.862C361.255 133.754 361.225 133.649 361.176 133.553L359.605 130.479C359.541 130.353 359.504 130.213 359.497 130.071L359.327 126.543M366.778 125.295L359.327 126.543M366.778 125.295L369.188 128.83C369.681 129.552 370.798 129.34 370.991 128.488L372.274 122.83C372.488 121.89 373.775 121.765 374.165 122.646L377.071 129.201C377.122 129.314 377.15 129.435 377.156 129.559L377.441 135.581C377.45 135.764 377.509 135.942 377.613 136.095L379.566 138.975C379.661 139.116 379.719 139.279 379.734 139.449L380.777 151.315C380.81 151.693 381.054 152.019 381.406 152.159L386.711 154.25M386.711 154.25L382.604 120.807C382.59 120.694 382.595 120.578 382.62 120.466L382.97 118.909C383.178 117.978 384.446 117.839 384.852 118.701L385.709 120.522C385.744 120.597 385.77 120.676 385.786 120.758L385.877 121.226C385.983 121.771 386.514 122.126 387.058 122.016L387.482 121.929C387.871 121.851 388.176 121.55 388.26 121.163L388.31 120.935C388.515 120.001 389.788 119.858 390.194 120.724L390.241 120.824C390.441 121.248 390.907 121.478 391.365 121.376L393.902 120.81C394.359 120.708 394.685 120.302 394.685 119.833V118.83C394.685 118.757 394.692 118.686 394.708 118.616L395.813 113.563M386.711 154.25L391.139 190.584M350.995 127.968L337.813 123.547M337.813 123.547L337.369 112.261C337.36 112.027 337.269 111.804 337.111 111.629L336.481 110.932C336.317 110.751 336.225 110.516 336.223 110.271L336.126 101.017C336.125 100.895 336.101 100.774 336.057 100.661L333.355 93.799C333.001 92.8968 331.698 92.9764 331.455 93.9151L329.598 101.103C329.573 101.199 329.563 101.299 329.567 101.398L329.808 106.744C329.836 107.365 329.213 107.805 328.637 107.572M328.637 107.572L313.003 43.7629C312.748 42.7206 311.254 42.7561 311.049 43.8094L299.945 100.71C299.929 100.791 299.903 100.87 299.868 100.945L296.742 107.572M328.637 107.572L318.894 104.161M296.742 107.572L312.023 103.911M318.894 104.161V94.0097C318.894 93.8991 318.876 93.79 318.84 93.6854L316.313 86.3031C315.998 85.3829 314.688 85.4074 314.408 86.3387L312.065 94.1177C312.037 94.2113 312.023 94.3089 312.023 94.4065V103.911M263.15 108.404L263.202 106.692C263.204 106.613 263.197 106.534 263.181 106.457L260.261 92.4424C260.054 91.4446 258.662 91.3596 258.334 92.3248L253.667 106.074M253.667 106.074L252.981 117.141M253.667 106.074L243.577 102.777M252.981 117.141L243.577 102.777M252.981 117.141L252.173 130.177C252.113 131.14 250.852 131.456 250.345 130.636C250.177 130.365 249.889 130.191 249.571 130.169L249.503 130.165C249.105 130.138 248.761 129.877 248.627 129.501L240.651 106.989M243.577 102.777L240.651 106.989M240.651 106.989L235.204 91.6173C234.92 90.8167 233.832 90.7111 233.399 91.4421L207.758 134.794C207.667 134.948 207.619 135.124 207.619 135.303V139.523M207.619 139.523V140.937M207.619 139.523C200.676 139.03 196.844 142.767 196.543 149.008M395.813 113.563L398.199 118.563C398.249 118.668 398.28 118.781 398.291 118.896L398.429 120.29C398.46 120.608 398.654 120.887 398.941 121.026C399.484 121.291 400.131 120.968 400.246 120.375L400.91 116.947C401.09 116.018 402.339 115.835 402.779 116.672L405.474 121.81C405.528 121.914 405.564 122.026 405.579 122.141L408.202 141.454C408.215 141.553 408.243 141.649 408.286 141.739L409.085 143.47C409.125 143.556 409.153 143.647 409.167 143.742L416.017 189.511M395.813 113.563L406.999 193.082M416.017 189.511L406.999 193.082M416.017 189.511H480M406.999 193.082L392.11 191.923C391.636 191.886 391.253 191.519 391.195 191.046L391.139 190.584M207.619 140.937L205.795 143.819C205.713 143.949 205.662 144.095 205.645 144.247L205.26 147.843M207.619 140.937L211.003 141.853M205.26 147.843L196.543 149.008M205.26 147.843L203.106 166.065M211.003 141.853L211.942 144.138C211.999 144.276 212.024 144.427 212.015 144.577L211.883 146.834C211.85 147.39 212.278 147.865 212.834 147.892L235.798 148.998C236.335 149.024 236.796 148.622 236.844 148.088L237.12 144.999C237.143 144.742 237.264 144.504 237.459 144.334L240.063 142.061M211.003 141.853C211.653 140.299 213.895 137.293 217.67 137.692M240.063 142.061C239.898 139.731 237.663 138.358 236.008 138.358M240.063 142.061L242.377 144.439C242.578 144.646 242.68 144.93 242.657 145.218L242.386 148.592L239.617 194.931M196.543 149.008L203.106 166.065M196.543 149.008L190.082 149.258M203.106 166.065L196.328 165.631C195.769 165.596 195.349 165.109 195.395 164.551L196.223 154.397C196.231 154.299 196.224 154.202 196.204 154.107L195.939 152.862C195.738 151.921 194.455 151.777 194.051 152.65L193.531 153.777C193.488 153.87 193.459 153.969 193.446 154.071L193.042 157.254C192.894 158.423 191.199 158.419 191.056 157.25L190.082 149.258M203.106 166.065L199.711 194.233M190.082 149.258L183.717 161.239M183.717 161.239L182.082 164.318M256.514 152.919L249.133 166.297C248.957 166.616 248.621 166.814 248.256 166.814H241.36M256.514 152.919C256.305 152.93 256.129 152.763 256.129 152.553V150.34C256.129 143.112 249.573 140.743 247.001 140.272" stroke="white" stroke-width="2" stroke-linejoin="round"/>
</g>
<defs>
<clipPath id="clip0_145_894">
<rect width="480" height="240" fill="white"/>
</clipPath>
</defs>
</svg>
