<svg width="24" height="24" viewBox="0 0 24 24" fill="none" xmlns="http://www.w3.org/2000/svg">
<path fill-rule="evenodd" clip-rule="evenodd" d="M12 22C17.5228 22 22 17.5228 22 12C22 6.47715 17.5228 2 12 2C6.47715 2 2 6.47715 2 12C2 17.5228 6.47715 22 12 22ZM12 24C18.6274 24 24 18.6274 24 12C24 5.37258 18.6274 0 12 0C5.37258 0 0 5.37258 0 12C0 18.6274 5.37258 24 12 24Z" fill="black"/>
<path d="M12 4C13.4042 4 14.7836 4.36958 15.9996 5.07159C17.2157 5.7736 18.2256 6.78332 18.9278 7.99928C19.63 9.21523 19.9998 10.5946 20 11.9987C20.0002 13.4029 19.6309 14.7824 18.929 15.9986C18.2272 17.2147 17.2177 18.2248 16.0018 18.9272C14.786 19.6296 13.4067 19.9996 12.0025 20C10.5984 20.0004 9.21883 19.6313 8.00254 18.9297C6.78625 18.228 5.77606 17.2186 5.07347 16.0029L12 12V4Z" fill="black"/>
</svg>
