<svg width="24" height="24" viewBox="0 0 24 24" fill="none" xmlns="http://www.w3.org/2000/svg">
<path fill-rule="evenodd" clip-rule="evenodd" d="M12 22C17.5228 22 22 17.5228 22 12C22 6.47715 17.5228 2 12 2C6.47715 2 2 6.47715 2 12C2 17.5228 6.47715 22 12 22ZM12 24C18.6274 24 24 18.6274 24 12C24 5.37258 18.6274 0 12 0C5.37258 0 0 5.37258 0 12C0 18.6274 5.37258 24 12 24Z" fill="black"/>
<path d="M12 4C13.4037 4 14.7827 4.36935 15.9985 5.07096C17.2144 5.77257 18.2242 6.78173 18.9265 7.9971C19.6289 9.21247 19.9991 10.5912 20 11.995C20.0009 13.3987 19.6324 14.7779 18.9316 15.9942L12 12V4Z" fill="black"/>
</svg>
