<svg width="24" height="24" viewBox="0 0 24 24" fill="none" xmlns="http://www.w3.org/2000/svg">
<path fill-rule="evenodd" clip-rule="evenodd" d="M12 22C17.5228 22 22 17.5228 22 12C22 6.47715 17.5228 2 12 2C6.47715 2 2 6.47715 2 12C2 17.5228 6.47715 22 12 22ZM12 24C18.6274 24 24 18.6274 24 12C24 5.37258 18.6274 0 12 0C5.37258 0 0 5.37258 0 12C0 18.6274 5.37258 24 12 24Z" fill="black"/>
<path d="M12 4C13.7604 4 15.4716 4.58063 16.8684 5.6519C18.2653 6.72317 19.2698 8.22527 19.7263 9.9254C20.1828 11.6255 20.0658 13.4288 19.3934 15.0557C18.7211 16.6825 17.5308 18.0422 16.0073 18.924L12 12V4Z" fill="black"/>
</svg>
