<svg width="24" height="24" viewBox="0 0 24 24" fill="none" xmlns="http://www.w3.org/2000/svg">
<path fill-rule="evenodd" clip-rule="evenodd" d="M12 22C17.5228 22 22 17.5228 22 12C22 6.47715 17.5228 2 12 2C6.47715 2 2 6.47715 2 12C2 17.5228 6.47715 22 12 22ZM12 24C18.6274 24 24 18.6274 24 12C24 5.37258 18.6274 0 12 0C5.37258 0 0 5.37258 0 12C0 18.6274 5.37258 24 12 24Z" fill="black"/>
<path d="M12 4C13.761 4 15.4728 4.58105 16.8699 5.65305C18.2671 6.72504 19.2714 8.22807 19.7273 9.92904C20.1832 11.63 20.0651 13.4339 19.3913 15.0609C18.7175 16.6879 17.5257 18.0471 16.0007 18.9278C14.4757 19.8084 12.7028 20.1613 10.9568 19.9317C9.21086 19.7021 7.58944 18.9028 6.34403 17.6577C5.09862 16.4127 4.29881 14.7916 4.06863 13.0457C3.83846 11.2998 4.19078 9.5267 5.07096 8.00145L12 12V4Z" fill="black"/>
</svg>
