<svg width="24" height="24" viewBox="0 0 24 24" fill="none" xmlns="http://www.w3.org/2000/svg">
<path fill-rule="evenodd" clip-rule="evenodd" d="M12 22C17.5228 22 22 17.5228 22 12C22 6.47715 17.5228 2 12 2C6.47715 2 2 6.47715 2 12C2 17.5228 6.47715 22 12 22ZM12 24C18.6274 24 24 18.6274 24 12C24 5.37258 18.6274 0 12 0C5.37258 0 0 5.37258 0 12C0 18.6274 5.37258 24 12 24Z" fill="black"/>
<path d="M12 4C13.9407 4 15.8153 4.70548 17.2745 5.98501C18.7336 7.26454 19.6779 9.03087 19.9314 10.955C20.185 12.8791 19.7304 14.8297 18.6525 16.4435C17.5745 18.0573 15.9467 19.2243 14.0722 19.727C12.1977 20.2297 10.2044 20.0338 8.46357 19.1759C6.72276 18.318 5.35317 16.8565 4.60993 15.0638C3.86668 13.271 3.80047 11.2692 4.42362 9.43126C5.04677 7.5933 6.31679 6.04454 7.9971 5.07347L12 12V4Z" fill="black"/>
</svg>
