<svg width="24" height="24" viewBox="0 0 24 24" fill="none" xmlns="http://www.w3.org/2000/svg">
<path fill-rule="evenodd" clip-rule="evenodd" d="M12 22C17.5228 22 22 17.5228 22 12C22 6.47715 17.5228 2 12 2C6.47715 2 2 6.47715 2 12C2 17.5228 6.47715 22 12 22ZM12 24C18.6274 24 24 18.6274 24 12C24 5.37258 18.6274 0 12 0C5.37258 0 0 5.37258 0 12C0 18.6274 5.37258 24 12 24Z" fill="black"/>
<path d="M12 4C13.227 4 14.4376 4.28225 15.5381 4.82493C16.6386 5.3676 17.5996 6.15615 18.3466 7.12958C19.0936 8.10301 19.6067 9.23523 19.8462 10.4387C20.0856 11.6421 20.0451 12.8845 19.7276 14.0697C19.4102 15.255 18.8243 16.3513 18.0154 17.274C17.2065 18.1966 16.1962 18.9208 15.0626 19.3906C13.9291 19.8603 12.7027 20.063 11.4782 19.983C10.2538 19.9029 9.06422 19.5423 8.00145 18.929L12 12V4Z" fill="black"/>
</svg>
